#!OML:ASF G:\JayActor3\Patient Classification 1\Patient 1\Session 2\male.ASF
:FULLY-SPECIFIED
:DEGREES
2949
root 50.1778 16.7224 -7.46178 2173.8 -83.0064 -371.38
lowerback 0.618267 -0.615667 -1.02097
upperback -0.0450582 -0.827207 1.21645
thorax -0.3602 -0.41206 1.82532
lowerneck 1.08738 -2.83223 -2.58126
upperneck -9.04125 -3.33982 9.44981
head -2.91563 -1.96426 3.70618
rclavicle 3.85766e-015 -5.36719e-015
rhumerus -40.4877 7.56605 -84.8935
rradius 45.6259
rwrist 5.01835
rhand -27.9082 7.29907
rfingers 7.12502
rthumb -1.29728 -22.6767
lclavicle 3.85766e-015 -5.36719e-015
lhumerus -28.3387 -10.2544 86.0252
lradius 43.2308
lwrist 13.6823
lhand -18.4297 19.7729
lfingers 7.12502
lthumb 7.85561 49.6069
rfemur -11.5775 1.17893 20.848
rtibia 33.4522
rfoot -23.1612 -4.23157
rtoes 19.3076
lfemur -7.60109 8.91797 -18.8089
ltibia 23.4651
lfoot -13.4772 -0.718596
ltoes -10.0405
2950
root 50.1723 16.7222 -7.45263 2173.87 -83.0658 -371.445
lowerback 0.606504 -0.609855 -1.03767
upperback -0.077756 -0.819277 1.19351
thorax -0.387489 -0.407562 1.81121
lowerneck 1.09954 -2.80822 -2.58378
upperneck -9.04874 -3.30713 9.45158
head -2.92276 -1.94849 3.70739
rclavicle 1.60922e-014 -5.46658e-015
rhumerus -40.4946 7.6133 -84.9288
rradius 45.6617
rwrist 5.01766
rhand -27.8754 7.28252
rfingers 7.12502
rthumb -1.26558 -22.6935
lclavicle 1.60922e-014 -5.46658e-015
lhumerus -28.3476 -10.4667 86.0438
lradius 43.8687
lwrist 13.7749
lhand -18.4086 19.7827
lfingers 7.12502
lthumb 7.87598 49.616
rfemur -11.5757 1.19933 20.8088
rtibia 33.4646
rfoot -23.1583 -4.20985
rtoes 19.2405
lfemur -7.55913 9.00139 -18.8385
ltibia 23.434
lfoot -13.49 -0.741191
ltoes -10.0149
2951
root 50.167 16.7221 -7.44345 2173.95 -83.1372 -371.511
lowerback 0.598907 -0.60196 -1.05306
upperback -0.11149 -0.8086 1.16899
thorax -0.418319 -0.40166 1.79478
lowerneck 1.08722 -2.78743 -2.58864
upperneck -9.02993 -3.28019 9.45569
head -2.91583 -1.93443 3.70827
rclavicle -4.35773e-015 8.24956e-015
rhumerus -40.5017 7.6649 -84.9645
rradius 45.7045
rwrist 5.01552
rhand -27.8515 7.26572
rfingers 7.12502
rthumb -1.24248 -22.7104
lclavicle -4.35773e-015 8.24956e-015
lhumerus -28.3542 -10.679 86.0612
lradius 44.5114
lwrist 13.8673
lhand -18.3838 19.7936
lfingers 7.12502
lthumb 7.89988 49.626
rfemur -11.5791 1.23462 20.7679
rtibia 33.4781
rfoot -23.1531 -4.19496
rtoes 19.1728
lfemur -7.51387 9.0542 -18.8761
ltibia 23.3948
lfoot -13.5071 -0.718108
ltoes -9.99563
2952
root 50.1619 16.7221 -7.43428 2174.04 -83.2203 -371.592
lowerback 0.591668 -0.592006 -1.06834
upperback -0.14426 -0.795213 1.14545
thorax -0.448452 -0.394422 1.77926
lowerneck 1.05177 -2.77107 -2.5946
upperneck -8.97681 -3.26143 9.453
head -2.8923 -1.92274 3.70516
rclavicle 2.168e-015 -3.47873e-015
rhumerus -40.5079 7.71948 -84.9972
rradius 45.7562
rwrist 5.00822
rhand -27.8331 7.24671
rfingers 7.12502
rthumb -1.22473 -22.7295
lclavicle 2.168e-015 -3.47873e-015
lhumerus -28.3493 -10.8865 86.0786
lradius 45.1447
lwrist 13.9598
lhand -18.3628 19.8085
lfingers 7.12502
lthumb 7.92017 49.6401
rfemur -11.587 1.28528 20.7273
rtibia 33.4919
rfoot -23.147 -4.18683
rtoes 19.1129
lfemur -7.46458 9.07831 -18.9196
ltibia 23.3474
lfoot -13.5271 -0.651751
ltoes -9.99407
2953
root 50.1569 16.7222 -7.42511 2174.16 -83.3105 -371.699
lowerback 0.587995 -0.579923 -1.08197
upperback -0.178782 -0.779019 1.12274
thorax -0.482492 -0.385747 1.76369
lowerneck 1.00597 -2.7585 -2.59574
upperneck -8.90095 -3.24921 9.44244
head -2.85876 -1.91333 3.69737
rclavicle 6.78042e-015 -2.03754e-015
rhumerus -40.5199 7.76943 -85.0253
rradius 45.8156
rwrist 4.99881
rhand -27.8162 7.22803
rfingers 7.12502
rthumb -1.20837 -22.7483
lclavicle 6.78042e-015 -2.03754e-015
lhumerus -28.3399 -11.091 86.0985
lradius 45.7671
lwrist 14.0477
lhand -18.3469 19.834
lfingers 7.12502
lthumb 7.93549 49.665
rfemur -11.5955 1.34888 20.6896
rtibia 33.5043
rfoot -23.1406 -4.18939
rtoes 19.057
lfemur -7.41011 9.07244 -18.966
ltibia 23.2935
lfoot -13.5503 -0.544951
ltoes -10.0239
2954
root 50.152 16.7225 -7.41594 2174.28 -83.4013 -371.814
lowerback 0.586158 -0.567557 -1.09566
upperback -0.212397 -0.762493 1.10161
thorax -0.516618 -0.376917 1.74979
lowerneck 0.956854 -2.74975 -2.58563
upperneck -8.813 -3.24321 9.41629
head -2.82035 -1.90641 3.68155
rclavicle -1.6027e-014 3.67752e-015
rhumerus -40.5356 7.81383 -85.0469
rradius 45.8819
rwrist 4.98362
rhand -27.8034 7.20791
rfingers 7.12502
rthumb -1.19599 -22.7685
lclavicle -1.6027e-014 3.67752e-015
lhumerus -28.3253 -11.2913 86.1232
lradius 46.3754
lwrist 14.1312
lhand -18.3304 19.8663
lfingers 7.12502
lthumb 7.9515 49.6968
rfemur -11.599 1.41611 20.6536
rtibia 33.5141
rfoot -23.1345 -4.19701
rtoes 19.0083
lfemur -7.3491 9.04232 -19.0139
ltibia 23.2354
lfoot -13.5754 -0.411465
ltoes -10.0838
2955
root 50.1471 16.7228 -7.40678 2174.41 -83.4905 -371.944
lowerback 0.585225 -0.55631 -1.10815
upperback -0.245245 -0.747488 1.08215
thorax -0.550397 -0.368865 1.73693
lowerneck 0.913329 -2.74198 -2.56274
upperneck -8.72557 -3.23874 9.37781
head -2.78338 -1.90034 3.65922
rclavicle -1.90398e-015 3.47873e-016
rhumerus -40.5513 7.85481 -85.0638
rradius 45.9481
rwrist 4.96493
rhand -27.7944 7.18935
rfingers 7.12502
rthumb -1.18732 -22.7871
lclavicle -1.90398e-015 3.47873e-016
lhumerus -28.3064 -11.4882 86.1514
lradius 46.9688
lwrist 14.2084
lhand -18.3212 19.8926
lfingers 7.12502
lthumb 7.96033 49.7227
rfemur -11.5961 1.48206 20.6204
rtibia 33.5201
rfoot -23.1274 -4.20978
rtoes 18.9556
lfemur -7.28234 8.99425 -19.0611
ltibia 23.1762
lfoot -13.6015 -0.2626
ltoes -10.136
2956
root 50.1421 16.7231 -7.39771 2174.55 -83.5731 -372.084
lowerback 0.585175 -0.547721 -1.11887
upperback -0.275032 -0.736052 1.06379
thorax -0.581406 -0.362651 1.72423
lowerneck 0.871733 -2.73113 -2.53365
upperneck -8.64551 -3.22964 9.33818
head -2.74972 -1.89242 3.63561
rclavicle -1.6451e-014 8.49804e-015
rhumerus -40.5604 7.89031 -85.0772
rradius 46.0097
rwrist 4.94687
rhand -27.79 7.17815
rfingers 7.12502
rthumb -1.18308 -22.7983
lclavicle -1.6451e-014 8.49804e-015
lhumerus -28.28 -11.6818 86.1817
lradius 47.5446
lwrist 14.2768
lhand -18.3212 19.881
lfingers 7.12502
lthumb 7.96029 49.7111
rfemur -11.5846 1.54029 20.5901
rtibia 33.5223
rfoot -23.1201 -4.22186
rtoes 18.9002
lfemur -7.21015 8.93616 -19.1055
ltibia 23.1185
lfoot -13.6283 -0.112627
ltoes -10.1717
2957
root 50.1371 16.7233 -7.38873 2174.69 -83.6507 -372.234
lowerback 0.585175 -0.54152 -1.12725
upperback -0.300791 -0.727811 1.04616
thorax -0.608214 -0.358109 1.71095
lowerneck 0.83095 -2.71633 -2.49919
upperneck -8.58088 -3.21431 9.30032
head -2.72197 -1.88215 3.61212
rclavicle 4.91681e-015 -1.98785e-016
rhumerus -40.5589 7.92585 -85.0882
rradius 46.0663
rwrist 4.92937
rhand -27.7904 7.16656
rfingers 7.12502
rthumb -1.18347 -22.8099
lclavicle 4.91681e-015 -1.98785e-016
lhumerus -28.2433 -11.8717 86.2122
lradius 48.1009
lwrist 14.3319
lhand -18.3317 19.8261
lfingers 7.12502
lthumb 7.95022 49.6565
rfemur -11.5662 1.58884 20.5614
rtibia 33.5209
rfoot -23.1105 -4.22273
rtoes 18.8609
lfemur -7.13622 8.87713 -19.1469
ltibia 23.0647
lfoot -13.6539 0.0319518
ltoes -10.1855
2958
root 50.1322 16.7235 -7.37987 2174.84 -83.7262 -372.393
lowerback 0.583999 -0.538923 -1.13678
upperback -0.32262 -0.724395 1.03188
thorax -0.630098 -0.356043 1.70177
lowerneck 0.786835 -2.69557 -2.46948
upperneck -8.52863 -3.19017 9.27031
head -2.6983 -1.86795 3.59253
rclavicle -3.21627e-015 4.57205e-015
rhumerus -40.5428 7.96917 -85.0955
rradius 46.1165
rwrist 4.91875
rhand -27.7917 7.15555
rfingers 7.12502
rthumb -1.18477 -22.8209
lclavicle -3.21627e-015 4.57205e-015
lhumerus -28.194 -12.0536 86.2439
lradius 48.6344
lwrist 14.3729
lhand -18.3586 19.7294
lfingers 7.12502
lthumb 7.92424 49.5608
rfemur -11.5455 1.62492 20.5318
rtibia 33.5168
rfoot -23.0975 -4.21009
rtoes 18.8249
lfemur -7.06672 8.82566 -19.1866
ltibia 23.0173
lfoot -13.6783 0.167011
ltoes -10.1875
2959
root 50.1273 16.7236 -7.37112 2175.01 -83.8023 -372.569
lowerback 0.582498 -0.538373 -1.14694
upperback -0.341736 -0.723724 1.0205
thorax -0.648874 -0.355389 1.69591
lowerneck 0.736736 -2.66848 -2.44881
upperneck -8.4854 -3.15677 9.25405
head -2.67699 -1.84952 3.57952
rclavicle 9.90662e-015 -1.18028e-014
rhumerus -40.5139 8.01881 -85.0984
rradius 46.1616
rwrist 4.91479
rhand -27.7963 7.13858
rfingers 7.12502
rthumb -1.18913 -22.8379
lclavicle 9.90662e-015 -1.18028e-014
lhumerus -28.1312 -12.2288 86.2766
lradius 49.1418
lwrist 14.3994
lhand -18.3936 19.6165
lfingers 7.12502
lthumb 7.89041 49.4492
rfemur -11.5249 1.65091 20.5012
rtibia 33.5107
rfoot -23.0777 -4.18048
rtoes 18.8016
lfemur -7.00482 8.78739 -19.2242
ltibia 22.9778
lfoot -13.7022 0.290741
ltoes -10.2073
2960
root 50.1225 16.7236 -7.36256 2175.23 -83.8814 -372.785
lowerback 0.581481 -0.536606 -1.15515
upperback -0.36115 -0.721426 1.01027
thorax -0.668297 -0.353925 1.69013
lowerneck 0.6872 -2.64139 -2.42948
upperneck -8.43437 -3.12358 9.24144
head -2.6531 -1.83107 3.56785
rclavicle 1.15466e-015 -3.42904e-015
rhumerus -40.4807 8.06372 -85.0979
rradius 46.2023
rwrist 4.91962
rhand -27.8024 7.11944
rfingers 7.12502
rthumb -1.19507 -22.857
lclavicle 1.15466e-015 -3.42904e-015
lhumerus -28.0602 -12.4064 86.3108
lradius 49.6219
lwrist 14.4132
lhand -18.4391 19.5123
lfingers 7.12502
lthumb 7.84656 49.3467
rfemur -11.5068 1.66925 20.4713
rtibia 33.5033
rfoot -23.0519 -4.13194
rtoes 18.7955
lfemur -6.95146 8.76262 -19.2572
ltibia 22.9479
lfoot -13.7269 0.401569
ltoes -10.2235
